# This file uses centimeters as units for non-parametric coordinates.

mtllib Ventanas.mtl
g default
v -2.265346 2.206137 -0.088520
v -3.735375 2.206137 -0.088520
v -3.735375 0.694107 -0.088520
v -2.265346 0.694107 -0.088520
v -3.735375 0.694107 -0.100187
v -3.735375 2.206137 -0.100187
v -2.265346 2.206137 -0.100187
v -2.265346 0.694107 -0.100187
v -2.243939 4.735689 -0.994351
v -3.713968 4.735689 -0.994351
v -3.713968 3.223659 -0.994351
v -2.243939 3.223659 -0.994351
v -3.713968 3.223659 -1.006018
v -3.713968 4.735689 -1.006018
v -2.243939 4.735689 -1.006018
v -2.243939 3.223659 -1.006018
v 3.733529 2.206137 -0.090911
v 2.263500 2.206137 -0.090911
v 2.263500 0.694107 -0.090911
v 3.733529 0.694107 -0.090911
v 2.263500 0.694107 -0.102578
v 2.263500 2.206137 -0.102578
v 3.733529 2.206137 -0.102578
v 3.733529 0.694107 -0.102578
v 3.757893 4.735689 -0.994351
v 2.287864 4.735689 -0.994351
v 2.287864 3.223659 -0.994351
v 3.757893 3.223659 -0.994351
v 2.287864 3.223659 -1.006018
v 2.287864 4.735689 -1.006018
v 3.757893 4.735689 -1.006018
v 3.757893 3.223659 -1.006018
v 4.969343 2.253509 -4.313591
v 4.969343 2.253509 -2.843561
v 4.969343 0.741478 -2.843561
v 4.969343 0.741478 -4.313591
v 4.957677 0.741478 -2.843561
v 4.957677 2.253509 -2.843561
v 4.957677 2.253509 -4.313591
v 4.957677 0.741478 -4.313591
v 0.757560 4.735689 -0.994351
v -0.712469 4.735689 -0.994351
v -0.712469 3.223659 -0.994351
v 0.757560 3.223659 -0.994351
v -0.712469 3.223659 -1.006018
v -0.712469 4.735689 -1.006018
v 0.757560 4.735689 -1.006018
v 0.757560 3.223659 -1.006018
vt -2.853200 3.750000
vt -6.353200 3.750000
vt -6.353200 -0.750000
vt -2.853200 -0.750000
vt 7.353200 -0.750000
vt 7.353200 3.750000
vt 3.853200 3.750000
vt 3.853200 -0.750000
vt -6.353200 17.707899
vt -2.853200 17.707899
vt -2.853200 17.749599
vt -6.353200 17.749599
vt -0.750000 17.707899
vt 3.750000 17.707899
vt 3.750000 17.749599
vt -0.750000 17.749599
vt 3.853200 17.707899
vt 7.353200 17.707899
vt 7.353200 17.749599
vt 3.853200 17.749599
vt -2.750000 17.707899
vt 1.750000 17.707899
vt 1.750000 17.749599
vt -2.750000 17.749599
vt -2.853200 3.750000
vt -6.353200 3.750000
vt -6.353200 -0.750000
vt -2.853200 -0.750000
vt 7.353200 -0.750000
vt 7.353200 3.750000
vt 3.853200 3.750000
vt 3.853200 -0.750000
vt -6.353200 17.707899
vt -2.853200 17.707899
vt -2.853200 17.749599
vt -6.353200 17.749599
vt -0.750000 17.707899
vt 3.750000 17.707899
vt 3.750000 17.749599
vt -0.750000 17.749599
vt 3.853200 17.707899
vt 7.353200 17.707899
vt 7.353200 17.749599
vt 3.853200 17.749599
vt -2.750000 17.707899
vt 1.750000 17.707899
vt 1.750000 17.749599
vt -2.750000 17.749599
vt -2.853200 3.750000
vt -6.353200 3.750000
vt -6.353200 -0.750000
vt -2.853200 -0.750000
vt 7.353200 -0.750000
vt 7.353200 3.750000
vt 3.853200 3.750000
vt 3.853200 -0.750000
vt -6.353200 17.707899
vt -2.853200 17.707899
vt -2.853200 17.749599
vt -6.353200 17.749599
vt -0.750000 17.707899
vt 3.750000 17.707899
vt 3.750000 17.749599
vt -0.750000 17.749599
vt 3.853200 17.707899
vt 7.353200 17.707899
vt 7.353200 17.749599
vt 3.853200 17.749599
vt -2.750000 17.707899
vt 1.750000 17.707899
vt 1.750000 17.749599
vt -2.750000 17.749599
vt -2.853200 3.750000
vt -6.353200 3.750000
vt -6.353200 -0.750000
vt -2.853200 -0.750000
vt 7.353200 -0.750000
vt 7.353200 3.750000
vt 3.853200 3.750000
vt 3.853200 -0.750000
vt -6.353200 17.707899
vt -2.853200 17.707899
vt -2.853200 17.749599
vt -6.353200 17.749599
vt -0.750000 17.707899
vt 3.750000 17.707899
vt 3.750000 17.749599
vt -0.750000 17.749599
vt 3.853200 17.707899
vt 7.353200 17.707899
vt 7.353200 17.749599
vt 3.853200 17.749599
vt -2.750000 17.707899
vt 1.750000 17.707899
vt 1.750000 17.749599
vt -2.750000 17.749599
vt -2.853200 3.750000
vt -6.353200 3.750000
vt -6.353200 -0.750000
vt -2.853200 -0.750000
vt 7.353200 -0.750000
vt 7.353200 3.750000
vt 3.853200 3.750000
vt 3.853200 -0.750000
vt -6.353200 17.707899
vt -2.853200 17.707899
vt -2.853200 17.749599
vt -6.353200 17.749599
vt -0.750000 17.707899
vt 3.750000 17.707899
vt 3.750000 17.749599
vt -0.750000 17.749599
vt 3.853200 17.707899
vt 7.353200 17.707899
vt 7.353200 17.749599
vt 3.853200 17.749599
vt -2.750000 17.707899
vt 1.750000 17.707899
vt 1.750000 17.749599
vt -2.750000 17.749599
vt -2.853200 3.750000
vt -6.353200 3.750000
vt -6.353200 -0.750000
vt -2.853200 -0.750000
vt 7.353200 -0.750000
vt 7.353200 3.750000
vt 3.853200 3.750000
vt 3.853200 -0.750000
vt -6.353200 17.707899
vt -2.853200 17.707899
vt -2.853200 17.749599
vt -6.353200 17.749599
vt -0.750000 17.707899
vt 3.750000 17.707899
vt 3.750000 17.749599
vt -0.750000 17.749599
vt 3.853200 17.707899
vt 7.353200 17.707899
vt 7.353200 17.749599
vt 3.853200 17.749599
vt -2.750000 17.707899
vt 1.750000 17.707899
vt 1.750000 17.749599
vt -2.750000 17.749599
vn 0.000000 0.000000 1.000000
vn 0.000000 0.000000 1.000000
vn 0.000000 0.000000 1.000000
vn 0.000000 0.000000 1.000000
vn 0.000000 0.000000 -1.000000
vn 0.000000 0.000000 -1.000000
vn 0.000000 0.000000 -1.000000
vn 0.000000 0.000000 -1.000000
vn 0.000000 -1.000000 0.000000
vn 0.000000 -1.000000 0.000000
vn 0.000000 -1.000000 0.000000
vn 0.000000 -1.000000 0.000000
vn 1.000000 0.000000 0.000000
vn 1.000000 0.000000 0.000000
vn 1.000000 0.000000 0.000000
vn 1.000000 0.000000 0.000000
vn 0.000000 1.000000 0.000000
vn 0.000000 1.000000 0.000000
vn 0.000000 1.000000 0.000000
vn 0.000000 1.000000 0.000000
vn -1.000000 0.000000 0.000000
vn -1.000000 0.000000 0.000000
vn -1.000000 0.000000 0.000000
vn -1.000000 0.000000 0.000000
vn 0.000000 0.000000 1.000000
vn 0.000000 0.000000 1.000000
vn 0.000000 0.000000 1.000000
vn 0.000000 0.000000 1.000000
vn 0.000000 0.000000 -1.000000
vn 0.000000 0.000000 -1.000000
vn 0.000000 0.000000 -1.000000
vn 0.000000 0.000000 -1.000000
vn 0.000000 -1.000000 0.000000
vn 0.000000 -1.000000 0.000000
vn 0.000000 -1.000000 0.000000
vn 0.000000 -1.000000 0.000000
vn 1.000000 0.000000 0.000000
vn 1.000000 0.000000 0.000000
vn 1.000000 0.000000 0.000000
vn 1.000000 0.000000 0.000000
vn 0.000000 1.000000 0.000000
vn 0.000000 1.000000 0.000000
vn 0.000000 1.000000 0.000000
vn 0.000000 1.000000 0.000000
vn -1.000000 0.000000 0.000000
vn -1.000000 0.000000 0.000000
vn -1.000000 0.000000 0.000000
vn -1.000000 0.000000 0.000000
vn 0.000000 0.000000 1.000000
vn 0.000000 0.000000 1.000000
vn 0.000000 0.000000 1.000000
vn 0.000000 0.000000 1.000000
vn 0.000000 0.000000 -1.000000
vn 0.000000 0.000000 -1.000000
vn 0.000000 0.000000 -1.000000
vn 0.000000 0.000000 -1.000000
vn 0.000000 -1.000000 0.000000
vn 0.000000 -1.000000 0.000000
vn 0.000000 -1.000000 0.000000
vn 0.000000 -1.000000 0.000000
vn 1.000000 0.000000 0.000000
vn 1.000000 0.000000 0.000000
vn 1.000000 0.000000 0.000000
vn 1.000000 0.000000 0.000000
vn 0.000000 1.000000 0.000000
vn 0.000000 1.000000 0.000000
vn 0.000000 1.000000 0.000000
vn 0.000000 1.000000 0.000000
vn -1.000000 0.000000 0.000000
vn -1.000000 0.000000 0.000000
vn -1.000000 0.000000 0.000000
vn -1.000000 0.000000 0.000000
vn 0.000000 0.000000 1.000000
vn 0.000000 0.000000 1.000000
vn 0.000000 0.000000 1.000000
vn 0.000000 0.000000 1.000000
vn 0.000000 0.000000 -1.000000
vn 0.000000 0.000000 -1.000000
vn 0.000000 0.000000 -1.000000
vn 0.000000 0.000000 -1.000000
vn 0.000000 -1.000000 0.000000
vn 0.000000 -1.000000 0.000000
vn 0.000000 -1.000000 0.000000
vn 0.000000 -1.000000 0.000000
vn 1.000000 0.000000 0.000000
vn 1.000000 0.000000 0.000000
vn 1.000000 0.000000 0.000000
vn 1.000000 0.000000 0.000000
vn 0.000000 1.000000 0.000000
vn 0.000000 1.000000 0.000000
vn 0.000000 1.000000 0.000000
vn 0.000000 1.000000 0.000000
vn -1.000000 0.000000 0.000000
vn -1.000000 0.000000 0.000000
vn -1.000000 0.000000 0.000000
vn -1.000000 0.000000 0.000000
vn 1.000000 0.000000 0.000000
vn 1.000000 0.000000 0.000000
vn 1.000000 0.000000 0.000000
vn 1.000000 0.000000 0.000000
vn -1.000000 0.000000 0.000000
vn -1.000000 0.000000 0.000000
vn -1.000000 0.000000 0.000000
vn -1.000000 0.000000 0.000000
vn 0.000000 -1.000000 0.000000
vn 0.000000 -1.000000 0.000000
vn 0.000000 -1.000000 0.000000
vn 0.000000 -1.000000 0.000000
vn 0.000000 0.000000 -1.000000
vn 0.000000 0.000000 -1.000000
vn 0.000000 0.000000 -1.000000
vn 0.000000 0.000000 -1.000000
vn 0.000000 1.000000 0.000000
vn 0.000000 1.000000 0.000000
vn 0.000000 1.000000 0.000000
vn 0.000000 1.000000 0.000000
vn 0.000000 0.000000 1.000000
vn 0.000000 0.000000 1.000000
vn 0.000000 0.000000 1.000000
vn 0.000000 0.000000 1.000000
vn 0.000000 0.000000 1.000000
vn 0.000000 0.000000 1.000000
vn 0.000000 0.000000 1.000000
vn 0.000000 0.000000 1.000000
vn 0.000000 0.000000 -1.000000
vn 0.000000 0.000000 -1.000000
vn 0.000000 0.000000 -1.000000
vn 0.000000 0.000000 -1.000000
vn 0.000000 -1.000000 0.000000
vn 0.000000 -1.000000 0.000000
vn 0.000000 -1.000000 0.000000
vn 0.000000 -1.000000 0.000000
vn 1.000000 0.000000 0.000000
vn 1.000000 0.000000 0.000000
vn 1.000000 0.000000 0.000000
vn 1.000000 0.000000 0.000000
vn 0.000000 1.000000 0.000000
vn 0.000000 1.000000 0.000000
vn 0.000000 1.000000 0.000000
vn 0.000000 1.000000 0.000000
vn -1.000000 0.000000 0.000000
vn -1.000000 0.000000 0.000000
vn -1.000000 0.000000 0.000000
vn -1.000000 0.000000 0.000000
s off
g Ventanas:polySurface1537pasted__polySurface1094group3
usemtl Ventanas:pasted__phong5SG
f 1/1/1 2/2/2 3/3/3 4/4/4
f 5/5/5 6/6/6 7/7/7 8/8/8
f 5/9/9 8/10/10 4/11/11 3/12/12
f 8/13/13 7/14/14 1/15/15 4/16/16
f 7/17/17 6/18/18 2/19/19 1/20/20
f 6/21/21 5/22/22 3/23/23 2/24/24
f 9/25/25 10/26/26 11/27/27 12/28/28
f 13/29/29 14/30/30 15/31/31 16/32/32
f 13/33/33 16/34/34 12/35/35 11/36/36
f 16/37/37 15/38/38 9/39/39 12/40/40
f 15/41/41 14/42/42 10/43/43 9/44/44
f 14/45/45 13/46/46 11/47/47 10/48/48
f 17/49/49 18/50/50 19/51/51 20/52/52
f 21/53/53 22/54/54 23/55/55 24/56/56
f 21/57/57 24/58/58 20/59/59 19/60/60
f 24/61/61 23/62/62 17/63/63 20/64/64
f 23/65/65 22/66/66 18/67/67 17/68/68
f 22/69/69 21/70/70 19/71/71 18/72/72
f 25/73/73 26/74/74 27/75/75 28/76/76
f 29/77/77 30/78/78 31/79/79 32/80/80
f 29/81/81 32/82/82 28/83/83 27/84/84
f 32/85/85 31/86/86 25/87/87 28/88/88
f 31/89/89 30/90/90 26/91/91 25/92/92
f 30/93/93 29/94/94 27/95/95 26/96/96
f 33/97/97 34/98/98 35/99/99 36/100/100
f 37/101/101 38/102/102 39/103/103 40/104/104
f 37/105/105 40/106/106 36/107/107 35/108/108
f 40/109/109 39/110/110 33/111/111 36/112/112
f 39/113/113 38/114/114 34/115/115 33/116/116
f 38/117/117 37/118/118 35/119/119 34/120/120
f 41/121/121 42/122/122 43/123/123 44/124/124
f 45/125/125 46/126/126 47/127/127 48/128/128
f 45/129/129 48/130/130 44/131/131 43/132/132
f 48/133/133 47/134/134 41/135/135 44/136/136
f 47/137/137 46/138/138 42/139/139 41/140/140
f 46/141/141 45/142/142 43/143/143 42/144/144
