# This file uses centimeters as units for non-parametric coordinates.

mtllib VentanaP.mtl
g default
v 0.977207 0.926024 0.023236
v 0.977207 0.062876 0.023236
v 0.215658 0.062876 0.023236
v 0.215658 0.926024 0.023236
v 0.215658 0.062876 0.013643
v 0.977207 0.062876 0.013643
v 0.977207 0.926024 0.013643
v 0.215658 0.926024 0.013643
vt -8.035700 -0.916700
vt -8.035700 -3.837000
vt -9.850900 -3.837000
vt -9.850900 -0.916700
vt 9.035700 -0.916700
vt 10.850900 -0.916700
vt 10.850900 -3.837000
vt 9.035700 -3.837000
vt 10.850900 -16.602501
vt 10.850900 -16.644100
vt 9.035700 -16.644100
vt 9.035700 -16.602501
vt -0.916700 -16.602501
vt -0.916700 -16.644100
vt -3.837000 -16.644100
vt -3.837000 -16.602501
vt -8.035700 -16.602501
vt -8.035700 -16.644100
vt -9.850900 -16.644100
vt -9.850900 -16.602501
vt 4.837000 -16.602501
vt 4.837000 -16.644100
vt 1.916700 -16.644100
vt 1.916700 -16.602501
vn 0.000000 0.000000 1.000000
vn 0.000000 0.000000 1.000000
vn 0.000000 0.000000 1.000000
vn 0.000000 0.000000 1.000000
vn 0.000000 0.000000 -1.000000
vn 0.000000 0.000000 -1.000000
vn 0.000000 0.000000 -1.000000
vn 0.000000 0.000000 -1.000000
vn 0.000000 -1.000000 0.000000
vn 0.000000 -1.000000 0.000000
vn 0.000000 -1.000000 0.000000
vn 0.000000 -1.000000 0.000000
vn 1.000000 0.000000 0.000000
vn 1.000000 0.000000 0.000000
vn 1.000000 0.000000 0.000000
vn 1.000000 0.000000 0.000000
vn 0.000000 1.000000 0.000000
vn 0.000000 1.000000 0.000000
vn 0.000000 1.000000 0.000000
vn 0.000000 1.000000 0.000000
vn -1.000000 0.000000 0.000000
vn -1.000000 0.000000 0.000000
vn -1.000000 0.000000 0.000000
vn -1.000000 0.000000 0.000000
s off
g VentanaP:polySurface1542polySurface1049
usemtl VentanaP:pasted__phong5SG
f 4/1/1 3/2/2 2/3/3 1/4/4
f 8/5/5 7/6/6 6/7/7 5/8/8
f 6/9/9 2/10/10 3/11/11 5/12/12
f 7/13/13 1/14/14 2/15/15 6/16/16
f 8/17/17 4/18/18 1/19/19 7/20/20
f 5/21/21 3/22/22 4/23/23 8/24/24
